<svg width="200" height="100" xmlns="http://www.w3.org/2000/svg" viewBox="0 0 200 100">
    <g fill="#8A6BF4">
      <!-- "Your AI. Yoo" 텍스트를 path로 변환 -->
      <path d="M 10,50
              L 20,50
              M 30,50
              L 40,50
              M 50,50
              L 60,50
              M 70,50
              L 80,50
              M 90,50
              L 100,50
              M 110,50
              L 120,50
              M 130,50
              L 140,50
              M 150,50
              L 160,50
              M 170,50
              L 180,50
              M 190,50
              L 200,50" />
      <!-- 하트 모양 -->
      <path d="M 35,30
              A 10,10 0,0,1 50,30
              A 10,10 0,0,1 65,30
              Q 65,40 50,55
              Q 35,40 35,30 z" />
    </g>
  </svg>